<svg width="270" height="270" viewBox="0 0 270 270" fill="none" xmlns="http://www.w3.org/2000/svg">
<rect width="270" height="270" fill="#11181C"/>
<path d="M185.137 143.805C185.262 146.462 186.414 163.81 186.379 166.512C186.345 169.214 186.379 171.711 186.311 174.311C186.208 177.656 185.911 180.992 185.422 184.302C185.285 185.153 185.125 185.994 184.943 186.834C184.478 188.869 183.256 190.654 181.524 191.829C179.55 193.234 177.365 194.318 175.05 195.042C154.834 201.022 109.414 198.569 102.208 198.134C101.619 198.099 101.045 198.046 100.46 197.974C96.585 197.494 87.881 196.573 85.0564 195.241C82.7055 194.133 80.6017 192.454 79.3544 190.189C78.9631 189.478 78.6419 188.727 78.3981 187.946C78.0245 186.463 77.9128 184.927 78.0675 183.405C78.3913 180.276 79.0585 177.193 80.0563 174.211C80.2975 173.491 80.5759 172.785 80.8618 172.08C84.9243 162.072 116.876 83.0661 130.793 69.7424C131.126 69.4238 132.737 67.7532 134.085 66.9761C136.848 65.3839 139.211 64.7199 142.373 64.2544H142.487L142.966 64.1636C146.437 63.7295 149.962 64.1624 153.223 65.4239C158.239 67.3993 166.251 70.4079 167.664 71.0324C170.238 72.1422 172.449 73.9473 174.047 76.2435C174.217 76.4863 174.385 76.7307 174.552 76.9762C176.597 79.9963 177.965 83.4006 178.698 86.9652C180.189 94.2149 182.593 110.078 185.137 143.806V143.805Z" fill="url(#paint0_linear_1_1713)"/>
<defs>
<linearGradient id="paint0_linear_1_1713" x1="77.9999" y1="131.5" x2="186.38" y2="131.5" gradientUnits="userSpaceOnUse">
<stop stop-color="#FCB60A"/>
<stop offset="0.115" stop-color="#F69319"/>
<stop offset="0.305" stop-color="#EF6D2A"/>
<stop offset="0.727" stop-color="#ED5332"/>
<stop offset="1" stop-color="#ED6A32"/>
</linearGradient>
</defs>
</svg>
