<svg width="114" height="142" viewBox="0 0 114 142" fill="none" xmlns="http://www.w3.org/2000/svg">
<path d="M112.693 83.9435C112.824 86.738 114.035 104.985 113.999 107.827C113.963 110.669 113.999 113.296 113.927 116.031C113.819 119.549 113.507 123.058 112.992 126.54C112.848 127.435 112.68 128.319 112.489 129.203C111.999 131.344 110.714 133.221 108.892 134.457C106.816 135.935 104.518 137.076 102.083 137.837C80.8179 144.127 33.0429 141.547 25.4628 141.089C24.8442 141.052 24.24 140.997 23.6251 140.921C19.5487 140.415 10.3934 139.447 7.42229 138.046C4.94951 136.88 2.73663 135.115 1.42467 132.732C1.01301 131.985 0.675204 131.195 0.418734 130.373C0.0257689 128.813 -0.0917153 127.197 0.0709552 125.596C0.411566 122.305 1.11336 119.062 2.16292 115.926C2.41659 115.168 2.70952 114.425 3.01024 113.685C7.2833 103.157 40.8919 20.0547 55.5307 6.04018C55.8807 5.705 57.5753 3.94781 58.9935 3.13039C61.8995 1.45569 64.385 0.757205 67.711 0.267554H67.831L68.3343 0.172096C71.9857 -0.2845 75.6937 0.17086 79.1241 1.49771C84.3994 3.57555 92.8271 6.74021 94.3139 7.39699C97.0213 8.56443 99.347 10.4631 101.028 12.8783C101.207 13.1338 101.384 13.3908 101.558 13.6491C103.71 16.8258 105.149 20.4066 105.92 24.156C107.488 31.7816 110.017 48.4674 112.693 83.9438V83.9435Z" fill="#F87216"/>
</svg>
