<svg width="24" height="24" viewBox="0 0 24 24" fill="none" xmlns="http://www.w3.org/2000/svg">
<path opacity="0.4" d="M19.79 4.22001C16.83 1.27001 12.03 1.27001 9.09002 4.22001C7.02002 6.27001 6.40002 9.22001 7.20002 11.82L2.50002 16.52C2.17002 16.86 1.94002 17.53 2.01002 18.01L2.31002 20.19C2.42002 20.91 3.09002 21.59 3.81002 21.69L5.99002 21.99C6.47002 22.06 7.14002 21.84 7.48002 21.49L8.30002 20.67C8.50002 20.48 8.50002 20.16 8.30002 19.96L6.36002 18.02C6.07002 17.73 6.07002 17.25 6.36002 16.96C6.65002 16.67 7.13002 16.67 7.42002 16.96L9.37002 18.91C9.56002 19.1 9.88002 19.1 10.07 18.91L12.19 16.8C14.78 17.61 17.73 16.98 19.79 14.93C22.74 11.98 22.74 7.17001 19.79 4.22001ZM14.5 12C13.12 12 12 10.88 12 9.50001C12 8.12001 13.12 7.00001 14.5 7.00001C15.88 7.00001 17 8.12001 17 9.50001C17 10.88 15.88 12 14.5 12Z" fill="#FF554A"/>
<path d="M14.5 12C15.8807 12 17 10.8807 17 9.5C17 8.11929 15.8807 7 14.5 7C13.1193 7 12 8.11929 12 9.5C12 10.8807 13.1193 12 14.5 12Z" fill="#FF554A"/>
</svg>
