<svg width="172" height="43" viewBox="0 0 172 43" fill="none" xmlns="http://www.w3.org/2000/svg">
<path d="M29.1755 20.7344C29.1755 23.8007 28.4072 26.1306 26.8705 27.7243C25.3339 29.3179 23.0831 30.1157 20.1181 30.1176C17.1956 30.1176 14.9555 29.316 13.3976 27.7129C11.8397 26.1099 11.0598 23.7723 11.0579 20.7004C11.0579 17.6662 11.831 15.3504 13.3773 13.753C14.9236 12.1556 17.1763 11.3559 20.1355 11.354C23.1024 11.354 25.3494 12.147 26.8763 13.7331C28.4033 15.3192 29.1697 17.653 29.1755 20.7344ZM16.3577 20.7344C16.3577 24.2563 17.6141 26.0172 20.1268 26.0172C21.3986 26.0172 22.3428 25.589 22.9594 24.7327C23.576 23.8763 23.8843 22.5435 23.8843 20.7344C23.8843 18.9139 23.5721 17.5698 22.9478 16.7021C22.3235 15.8344 21.3909 15.4005 20.15 15.4005C17.6218 15.4005 16.3577 17.1785 16.3577 20.7344Z" fill="#333333"/>
<path d="M39.3723 30.1176C38.6708 30.1447 37.9727 30.0111 37.3334 29.7275C36.6941 29.444 36.1314 29.0182 35.6902 28.4842H35.4582C35.5678 29.0943 35.6452 29.7095 35.6902 30.3274V35.9987H30.7063V15.7493H34.7653L35.464 17.5442H35.696C36.1027 16.9256 36.6597 16.415 37.3173 16.0581C37.9749 15.7013 38.7126 15.5092 39.4646 15.4991C40.2165 15.489 40.9593 15.6612 41.6267 16.0002C42.2941 16.3393 42.8652 16.8346 43.2892 17.4422C44.1957 18.7371 44.649 20.5151 44.649 22.776C44.649 25.037 44.1754 26.8329 43.2283 28.1638C42.8075 28.7824 42.2329 29.2862 41.5584 29.6279C40.8839 29.9697 40.1316 30.1382 39.3723 30.1176ZM37.6907 19.325C36.9601 19.325 36.4478 19.5803 36.1541 20.0907C35.8641 20.6011 35.7018 21.361 35.6786 22.3592V22.7477C35.6786 23.9595 35.8438 24.8357 36.1743 25.3763C36.3337 25.6392 36.5642 25.8539 36.8406 25.9965C37.1169 26.1391 37.4282 26.2042 37.74 26.1845C38.028 26.2031 38.3151 26.1372 38.5646 25.9953C38.814 25.8533 39.0145 25.6418 39.1403 25.3877C39.4302 24.8508 39.5752 23.9642 39.5752 22.7278C39.5752 21.4915 39.4302 20.6209 39.1403 20.1162C39.005 19.8596 38.7952 19.6476 38.5374 19.5069C38.2796 19.3662 37.9851 19.3029 37.6907 19.325Z" fill="#333333"/>
<path d="M52.8916 30.1176C50.4872 30.1176 48.62 29.4918 47.2902 28.2404C45.9604 26.9889 45.2965 25.209 45.2984 22.9008C45.2984 20.5151 45.914 18.6851 47.1452 17.411C48.3765 16.1368 50.1344 15.4997 52.419 15.4997C54.5935 15.4997 56.2732 16.0546 57.458 17.1643C58.6428 18.2739 59.2353 19.8704 59.2353 21.9537V24.123H50.3287C50.3289 24.4772 50.4084 24.827 50.5617 25.1479C50.7149 25.4688 50.9382 25.7529 51.2158 25.9803C51.8691 26.4592 52.6737 26.698 53.4889 26.6552C54.3007 26.6614 55.1106 26.5796 55.904 26.4114C56.7282 26.2192 57.529 25.9417 58.293 25.5833V29.0854C57.5307 29.4695 56.7151 29.7428 55.8721 29.8964C54.8872 30.0558 53.8898 30.1298 52.8916 30.1176ZM52.6017 18.8146C52.0571 18.7991 51.5281 18.9937 51.1289 19.3562C50.7423 19.7154 50.5113 20.2825 50.4359 21.0576H54.7153C54.7322 20.4622 54.5259 19.8813 54.1354 19.4243C53.9402 19.2193 53.7015 19.0585 53.4361 18.9532C53.1706 18.8479 52.8849 18.8006 52.5988 18.8146H52.6017Z" fill="#333333"/>
<path d="M69.5828 29.868V22.1664C69.5828 21.2211 69.4456 20.5132 69.1711 20.0425C69.0416 19.8112 68.8473 19.6209 68.6111 19.4939C68.3748 19.3668 68.1065 19.3082 67.8374 19.325C67.4695 19.3016 67.1025 19.3819 66.7797 19.5563C66.457 19.7307 66.1922 19.9919 66.0167 20.309C65.6417 20.9669 65.4552 22.0926 65.4571 23.6863V29.868H60.4849V15.7493H64.2539L64.8773 17.4932H65.1672C65.589 16.8329 66.2042 16.3122 66.9329 15.9988C67.7501 15.652 68.6342 15.4818 69.5248 15.4997C71.1214 15.4997 72.3632 15.9525 73.2504 16.858C74.1376 17.7635 74.5821 19.0386 74.5841 20.6833V29.868H69.5828Z" fill="#333333"/>
<path d="M88.9007 24.3357C88.9212 25.4006 88.6186 26.4476 88.0309 27.3443C87.4058 28.2519 86.5244 28.9622 85.4941 29.3888C84.2664 29.898 82.9422 30.1464 81.609 30.1176C80.5621 30.1343 79.5161 30.0488 78.4865 29.8624C77.5782 29.6696 76.6971 29.3696 75.8627 28.9691V24.5852C76.8168 25.0665 77.8208 25.4468 78.8576 25.7195C79.7867 25.9746 80.7456 26.1109 81.7105 26.125C82.4585 26.125 83.0065 25.9983 83.3544 25.745C83.5173 25.6368 83.6501 25.4908 83.7412 25.3201C83.8323 25.1494 83.8787 24.9592 83.8763 24.7667C83.8811 24.532 83.8078 24.3021 83.6675 24.1116C83.4788 23.8846 83.25 23.6925 82.992 23.5445C82.6808 23.3555 81.8545 22.9651 80.5131 22.3734C79.5347 21.9716 78.6153 21.4442 77.7791 20.8053C77.1989 20.331 76.7368 19.7336 76.428 19.0585C76.1166 18.3209 75.9646 17.5283 75.9815 16.7304C75.9815 15.0517 76.6058 13.7426 77.8545 12.803C79.1031 11.8635 80.8185 11.3909 83.0007 11.3852C85.0395 11.4103 87.0499 11.8557 88.9007 12.6924L87.3583 16.4922C85.6187 15.7134 84.115 15.323 82.847 15.3211C82.3469 15.2822 81.8472 15.4005 81.4206 15.6585C81.2836 15.7524 81.1717 15.8772 81.0945 16.0223C81.0173 16.1674 80.977 16.3286 80.977 16.4922C80.9861 16.6849 81.0422 16.8727 81.1405 17.0399C81.2389 17.2071 81.3766 17.3489 81.5424 17.4535C81.9289 17.7333 82.9543 18.2484 84.6185 18.9989C86.2247 19.7041 87.34 20.4603 87.9643 21.2675C88.6161 22.1601 88.9455 23.2396 88.9007 24.3357Z" fill="#333333"/>
<path d="M99.3382 29.868L98.3814 27.9993H98.2857C97.7467 28.7068 97.0431 29.2784 96.233 29.6667C95.3743 29.996 94.4556 30.1495 93.5338 30.1176C92.1808 30.1176 91.11 29.7187 90.3214 28.9209C89.5328 28.1232 89.1462 27.0012 89.1617 25.555C89.1617 24.0426 89.6971 22.9235 90.7679 22.1976C91.8387 21.4716 93.385 21.0586 95.4067 20.9584L97.8131 20.8818V20.6833C97.8131 19.5207 97.2275 18.9394 96.0562 18.9394C95.0008 18.9394 93.6623 19.2882 92.0407 19.9857L90.591 16.7701C92.2726 15.9232 94.3987 15.4997 96.9694 15.4997C98.8211 15.4997 100.254 15.9487 101.269 16.8467C102.284 17.7446 102.791 18.9989 102.791 20.6096V29.868H99.3382ZM95.6416 26.6779C96.2126 26.6882 96.7662 26.4854 97.1898 26.1108C97.3981 25.9312 97.5637 25.7091 97.6748 25.4603C97.786 25.2114 97.8402 24.9418 97.8334 24.6703V23.5615L96.6737 23.6126C95.0347 23.6693 94.2151 24.2591 94.2151 25.382C94.2267 26.2441 94.6993 26.6779 95.6416 26.6779Z" fill="#333333"/>
<path d="M114.896 29.868L114.269 28.1099H113.98C113.561 28.762 112.956 29.2796 112.24 29.5986C111.42 29.959 110.529 30.1362 109.631 30.1176C108.045 30.1176 106.807 29.6667 105.925 28.765C105.044 27.8632 104.6 26.59 104.6 24.9453V15.7493H109.581V23.4623C109.581 24.3848 109.715 25.0824 109.981 25.555C110.109 25.7847 110.3 25.9739 110.534 26.1001C110.768 26.2263 111.034 26.2841 111.301 26.2667C111.672 26.2933 112.043 26.2135 112.369 26.0373C112.695 25.8611 112.961 25.596 113.136 25.2743C113.501 24.6126 113.684 23.4972 113.684 21.9282V15.7493H118.665V29.868H114.896Z" fill="#333333"/>
<path d="M127.128 30.1176C124.768 30.1176 122.978 29.4947 121.758 28.2489C120.539 27.0031 119.929 25.2072 119.929 22.8611C119.929 20.5189 120.588 18.704 121.906 17.4166C123.224 16.1293 125.097 15.4856 127.525 15.4856C129.164 15.478 130.782 15.8451 132.251 16.5574L130.801 20.1587C130.251 19.9318 129.689 19.7339 129.117 19.5661C128.601 19.4121 128.064 19.3347 127.525 19.3364C127.158 19.321 126.794 19.3976 126.466 19.5589C126.138 19.7202 125.858 19.9609 125.652 20.258C125.209 20.8724 124.988 21.741 124.988 22.864C124.988 25.1325 125.841 26.2667 127.548 26.2667C129.044 26.2574 130.505 25.8251 131.755 25.0219V28.8954C130.372 29.7446 128.76 30.1702 127.128 30.1176Z" fill="#333333"/>
<path d="M140.035 30.1176C137.633 30.1176 135.767 29.4918 134.437 28.2404C133.107 26.9889 132.442 25.209 132.442 22.9008C132.442 20.5151 133.058 18.6851 134.289 17.411C135.52 16.1368 137.278 15.4997 139.563 15.4997C141.737 15.4997 143.417 16.0546 144.602 17.1643C145.787 18.2739 146.38 19.8704 146.382 21.9537V24.123H137.464C137.463 24.4771 137.542 24.827 137.694 25.148C137.847 25.469 138.07 25.7532 138.348 25.9803C139 26.4579 139.802 26.6967 140.615 26.6552C141.426 26.6612 142.235 26.5794 143.027 26.4114C143.852 26.2197 144.653 25.9421 145.416 25.5833V29.0854C144.654 29.47 143.839 29.7432 142.996 29.8964C142.017 30.0546 141.027 30.1287 140.035 30.1176ZM139.745 18.8146C139.201 18.8 138.672 18.9944 138.273 19.3562C137.886 19.7154 137.655 20.2825 137.58 21.0576H141.859C141.877 20.462 141.671 19.8807 141.279 19.4243C141.085 19.2192 140.846 19.0583 140.581 18.953C140.317 18.8477 140.031 18.8004 139.745 18.8146Z" fill="#333333"/>
<path d="M152.105 30.1176C151.134 30.1396 150.184 29.8398 149.409 29.2669C148.578 28.6086 147.959 27.7305 147.626 26.7375C147.18 25.4809 146.966 24.1569 146.994 22.8271C146.994 20.5321 147.465 18.7362 148.409 17.4393C148.836 16.8202 149.416 16.3172 150.096 15.9775C150.776 15.6377 151.533 15.4724 152.296 15.4969C153.032 15.4812 153.76 15.6439 154.416 15.9704C155.101 16.3609 155.674 16.9151 156.08 17.5811H156.182C156.02 16.4832 155.938 15.3754 155.938 14.2662V10.4919H160.96V29.8822H157.19L156.129 28.0731H155.938C155.08 29.4361 153.802 30.1176 152.105 30.1176ZM154.135 26.2667C154.933 26.2667 155.495 26.021 155.822 25.5295C156.15 25.0417 156.326 24.2846 156.35 23.2609V22.8753C156.35 21.6314 156.167 20.7448 155.802 20.2154C155.609 19.9496 155.35 19.737 155.049 19.5983C154.747 19.4597 154.414 19.3997 154.082 19.4243C153.768 19.4209 153.458 19.5038 153.189 19.6637C152.92 19.8236 152.702 20.054 152.56 20.3289C152.198 20.93 152.018 21.7892 152.018 22.9008C152.018 24.0124 152.201 24.8319 152.566 25.4075C152.723 25.6782 152.954 25.9014 153.232 26.0529C153.51 26.2044 153.825 26.2784 154.143 26.2667H154.135Z" fill="#333333"/>
</svg>
