<svg width="2716" height="68" viewBox="0 0 2716 68" fill="none" xmlns="http://www.w3.org/2000/svg">
<mask id="mask0_5_34" style="mask-type:alpha" maskUnits="userSpaceOnUse" x="-89" y="-80" width="2846" height="148">
<path fill-rule="evenodd" clip-rule="evenodd" d="M57.1615 -54.2609C57.1615 -68.4762 45.6377 -80 31.4223 -80H-49.9317C-71.5085 -80 -89 -62.5085 -89 -40.9317V-40.9317C-89 -19.3548 -71.5085 -1.86336 -49.9317 -1.86336H-5.34803C13.9442 -1.86336 29.5837 13.7761 29.5837 33.0683V33.0683C29.5837 52.3606 45.223 68 64.5153 68H2707.83C2734.49 68 2756.09 46.3929 2756.09 19.7391V19.7391C2756.09 -6.91461 2734.49 -28.5217 2707.83 -28.5217H82.9006C68.6853 -28.5217 57.1615 -40.0455 57.1615 -54.2609V-54.2609Z" fill="#C4C4C4"/>
</mask>
<g mask="url(#mask0_5_34)">
<rect x="-240" width="2956" height="112" fill="url(#paint0_linear_5_34)"/>
</g>
<defs>
<linearGradient id="paint0_linear_5_34" x1="45.336" y1="-41.8312" x2="1151.74" y2="1189.19" gradientUnits="userSpaceOnUse">
<stop offset="0.130208" stop-color="#F6D809"/>
<stop offset="1" stop-color="#ED5332"/>
</linearGradient>
</defs>
</svg>
