<svg width="48" height="61" viewBox="0 0 48 61" fill="none" xmlns="http://www.w3.org/2000/svg">
<path d="M7.28248 60.9007C5.57242 60.6629 3.9183 60.1054 2.40069 59.2556C2.15748 59.1252 1.92865 58.9678 1.71824 58.7863C0.99571 58.1177 0.461997 57.2586 0.173997 56.3006C0.0107227 55.6269 -0.0381588 54.9289 0.029536 54.2379C0.188367 52.6423 0.536364 51.0731 1.06567 49.5657C1.20017 49.1892 1.2998 48.8076 1.42433 48.426C1.66842 47.6731 3.09809 43.6661 3.4169 42.7843C3.97482 41.2372 7.72084 32.2331 8.39832 31.5627C9.24018 30.7015 12.1145 21.8367 12.7023 20.8001C12.8666 20.5113 13.0161 20.2226 13.1755 19.9286C13.569 19.1963 16.3337 13.1885 16.6127 12.6573C16.7372 12.4252 19.0436 8.31514 20.8817 5.04562C21.6721 3.72765 22.7304 2.60383 23.9829 1.75241C25.2355 0.900981 26.6523 0.342406 28.1347 0.11557H28.1845L28.3937 0.0743148C29.9109 -0.122874 31.4516 0.073843 32.877 0.646737C35.0688 1.54405 38.5708 2.91064 39.1884 3.19428C40.3134 3.69845 41.2797 4.51836 41.978 5.56132C42.4677 6.28832 42.9216 7.04047 43.338 7.81491C43.8819 8.87751 44.2824 10.0123 44.5285 11.1876C45.0815 13.9672 45.6344 16.7416 46.1575 19.5212C46.2975 20.2347 46.3957 20.9562 46.4514 21.682C46.5261 22.6463 46.8598 29.1132 46.7702 31.0006C46.7037 32.7504 46.722 34.5025 46.825 36.2504C46.8798 37.4571 47.3829 45.337 47.3679 46.5643C47.353 47.7917 47.3679 48.9262 47.338 50.1071C47.2931 51.6263 47.1634 53.1416 46.9495 54.6453C46.8897 55.032 46.82 55.4136 46.7403 55.7953C46.5368 56.7199 46.0029 57.5305 45.2459 58.0643C44.3831 58.7025 43.4281 59.1951 42.4164 59.5237C42.0876 59.6269 17.1756 59.1009 10.5951 60.7563C9.50984 61.0222 8.38551 61.0712 7.28248 60.9007Z" fill="#ED5332"/>
</svg>
