<svg width="50" height="34" viewBox="0 0 50 34" fill="none" xmlns="http://www.w3.org/2000/svg">
<g filter="url(#filter0_dd_1_50)">
<rect x="3" y="1" width="44" height="26" rx="6" fill="white"/>
<path d="M14.7983 19.2237C14.3807 19.2237 13.9995 19.1226 13.6548 18.9205C13.3101 18.715 13.035 18.4399 12.8295 18.0952C12.6241 17.7472 12.5213 17.366 12.5213 16.9517C12.5213 16.5308 12.6241 16.148 12.8295 15.8033C13.035 15.4586 13.3101 15.1835 13.6548 14.978C13.9995 14.7725 14.3807 14.6697 14.7983 14.6697H15.8324V13.1385H14.7983C14.3807 13.1385 13.9995 13.0374 13.6548 12.8352C13.3101 12.6297 13.035 12.3563 12.8295 12.0149C12.6241 11.6702 12.5213 11.2874 12.5213 10.8665C12.5213 10.4489 12.6241 10.0677 12.8295 9.72301C13.035 9.37831 13.3101 9.10488 13.6548 8.9027C13.9995 8.69721 14.3807 8.59446 14.7983 8.59446C15.2159 8.59446 15.5971 8.69721 15.9418 8.9027C16.2865 9.10488 16.5616 9.37831 16.767 9.72301C16.9759 10.0677 17.0803 10.4489 17.0803 10.8665V11.8956H18.6065V10.8665C18.6065 10.4489 18.7076 10.0677 18.9098 9.72301C19.1153 9.37831 19.3904 9.10488 19.7351 8.9027C20.0798 8.69721 20.4626 8.59446 20.8835 8.59446C21.3011 8.59446 21.6823 8.69721 22.027 8.9027C22.3717 9.10488 22.6451 9.37831 22.8473 9.72301C23.0528 10.0677 23.1555 10.4489 23.1555 10.8665C23.1555 11.2874 23.0528 11.6702 22.8473 12.0149C22.6418 12.3563 22.3667 12.6297 22.022 12.8352C21.6806 13.0374 21.3011 13.1385 20.8835 13.1385H19.8544V14.6697H20.8835C21.3011 14.6697 21.6806 14.7725 22.022 14.978C22.3667 15.1835 22.6418 15.4586 22.8473 15.8033C23.0528 16.148 23.1555 16.5308 23.1555 16.9517C23.1555 17.366 23.0528 17.7472 22.8473 18.0952C22.6418 18.4399 22.3667 18.715 22.022 18.9205C21.6806 19.1226 21.3011 19.2237 20.8835 19.2237C20.4626 19.2237 20.0798 19.1226 19.7351 18.9205C19.3904 18.715 19.1153 18.4399 18.9098 18.0952C18.7076 17.7472 18.6065 17.366 18.6065 16.9517V15.9126H17.0803V16.9517C17.0803 17.366 16.9759 17.7472 16.767 18.0952C16.5616 18.4399 16.2865 18.715 15.9418 18.9205C15.5971 19.1226 15.2159 19.2237 14.7983 19.2237ZM14.7983 17.9808C14.9872 17.9808 15.1596 17.9344 15.3153 17.8416C15.4744 17.7488 15.6004 17.6245 15.6932 17.4688C15.786 17.313 15.8324 17.1406 15.8324 16.9517V15.9126H14.7983C14.6094 15.9126 14.437 15.9607 14.2812 16.0568C14.1255 16.1496 14.0012 16.2739 13.9084 16.4297C13.8156 16.5855 13.7692 16.7595 13.7692 16.9517C13.7692 17.1406 13.8139 17.313 13.9034 17.4688C13.9962 17.6245 14.1205 17.7488 14.2763 17.8416C14.4354 17.9344 14.6094 17.9808 14.7983 17.9808ZM14.7983 11.8956H15.8324V10.8665C15.8324 10.6742 15.786 10.5019 15.6932 10.3494C15.6004 10.1937 15.4744 10.0694 15.3153 9.97656C15.1596 9.88376 14.9872 9.83736 14.7983 9.83736C14.6094 9.83736 14.437 9.88376 14.2812 9.97656C14.1255 10.0694 14.0012 10.1937 13.9084 10.3494C13.8156 10.5019 13.7692 10.6742 13.7692 10.8665C13.7692 11.0554 13.8139 11.2294 13.9034 11.3885C13.9962 11.5443 14.1205 11.6686 14.2763 11.7614C14.4354 11.8509 14.6094 11.8956 14.7983 11.8956ZM19.8544 11.8956H20.8835C21.0724 11.8956 21.2448 11.8509 21.4006 11.7614C21.5563 11.6686 21.679 11.5443 21.7685 11.3885C21.8613 11.2327 21.9077 11.0587 21.9077 10.8665C21.9077 10.6742 21.8613 10.5019 21.7685 10.3494C21.679 10.1937 21.5563 10.0694 21.4006 9.97656C21.2448 9.88376 21.0724 9.83736 20.8835 9.83736C20.6913 9.83736 20.5173 9.88376 20.3615 9.97656C20.2057 10.0694 20.0814 10.1937 19.9886 10.3494C19.8991 10.5019 19.8544 10.6742 19.8544 10.8665V11.8956ZM20.8835 17.9808C21.0724 17.9808 21.2448 17.9344 21.4006 17.8416C21.5563 17.7488 21.679 17.6245 21.7685 17.4688C21.8613 17.313 21.9077 17.1406 21.9077 16.9517C21.9077 16.7595 21.8613 16.5855 21.7685 16.4297C21.679 16.2739 21.5563 16.1496 21.4006 16.0568C21.2448 15.9607 21.0724 15.9126 20.8835 15.9126H19.8544V16.9517C19.8544 17.1406 19.8991 17.313 19.9886 17.4688C20.0814 17.6245 20.2057 17.7488 20.3615 17.8416C20.5173 17.9344 20.6913 17.9808 20.8835 17.9808ZM17.0803 14.6697H18.6065V13.1385H17.0803V14.6697Z" fill="#889096"/>
<path d="M30.0043 19V8.81818H31.8487V13.4964H31.973L35.9453 8.81818H38.1974L34.2599 13.3871L38.2322 19H36.0149L32.9773 14.6349L31.8487 15.9673V19H30.0043Z" fill="#889096"/>
</g>
<defs>
<filter id="filter0_dd_1_50" x="0" y="0" width="50" height="34" filterUnits="userSpaceOnUse" color-interpolation-filters="sRGB">
<feFlood flood-opacity="0" result="BackgroundImageFix"/>
<feColorMatrix in="SourceAlpha" type="matrix" values="0 0 0 0 0 0 0 0 0 0 0 0 0 0 0 0 0 0 127 0" result="hardAlpha"/>
<feOffset dy="1"/>
<feGaussianBlur stdDeviation="1"/>
<feComposite in2="hardAlpha" operator="out"/>
<feColorMatrix type="matrix" values="0 0 0 0 0 0 0 0 0 0 0 0 0 0 0 0 0 0 0.08 0"/>
<feBlend mode="normal" in2="BackgroundImageFix" result="effect1_dropShadow_1_50"/>
<feColorMatrix in="SourceAlpha" type="matrix" values="0 0 0 0 0 0 0 0 0 0 0 0 0 0 0 0 0 0 127 0" result="hardAlpha"/>
<feMorphology radius="1" operator="erode" in="SourceAlpha" result="effect2_dropShadow_1_50"/>
<feOffset dy="4"/>
<feGaussianBlur stdDeviation="2"/>
<feComposite in2="hardAlpha" operator="out"/>
<feColorMatrix type="matrix" values="0 0 0 0 0 0 0 0 0 0 0 0 0 0 0 0 0 0 0.08 0"/>
<feBlend mode="normal" in2="effect1_dropShadow_1_50" result="effect2_dropShadow_1_50"/>
<feBlend mode="normal" in="SourceGraphic" in2="effect2_dropShadow_1_50" result="shape"/>
</filter>
</defs>
</svg>
