<svg width="26" height="26" viewBox="0 0 26 26" fill="none" xmlns="http://www.w3.org/2000/svg">
<path fill-rule="evenodd" clip-rule="evenodd" d="M6.60001 0.200012C5.71636 0.200012 5.00001 0.916357 5.00001 1.80001V3.40001H3.40001C1.6327 3.40001 0.200012 4.8327 0.200012 6.60001V22.6C0.200012 24.3673 1.6327 25.8 3.40001 25.8H22.6C24.3673 25.8 25.8 24.3673 25.8 22.6V6.60001C25.8 4.8327 24.3673 3.40001 22.6 3.40001H21V1.80001C21 0.916357 20.2837 0.200012 19.4 0.200012C18.5164 0.200012 17.8 0.916357 17.8 1.80001V3.40001H8.20001V1.80001C8.20001 0.916357 7.48367 0.200012 6.60001 0.200012ZM6.60001 8.20001C5.71636 8.20001 5.00001 8.91636 5.00001 9.80001C5.00001 10.6837 5.71636 11.4 6.60001 11.4H19.4C20.2837 11.4 21 10.6837 21 9.80001C21 8.91636 20.2837 8.20001 19.4 8.20001H6.60001Z" fill="#889096"/>
</svg>
